<svg xmlns="http://www.w3.org/2000/svg" xmlns:xlink="http://www.w3.org/1999/xlink" width="200" zoomAndPan="magnify" viewBox="0 0 150 52.499999" height="70" preserveAspectRatio="xMidYMid meet" version="1.0"><defs><g/></defs><g fill="#ffffff" fill-opacity="1"><g transform="translate(1.626881, 30.827927)"><g><path d="M 4.96875 0.375 C 4.195312 0.375 3.410156 0.28125 2.609375 0.09375 C 1.816406 -0.09375 1.15625 -0.34375 0.625 -0.65625 L 0.734375 -3.5 L 0.9375 -3.5 L 1.59375 -2.140625 C 1.789062 -1.742188 2 -1.394531 2.21875 -1.09375 C 2.445312 -0.800781 2.753906 -0.566406 3.140625 -0.390625 C 3.421875 -0.253906 3.691406 -0.160156 3.953125 -0.109375 C 4.210938 -0.0664062 4.5 -0.046875 4.8125 -0.046875 C 5.664062 -0.046875 6.335938 -0.273438 6.828125 -0.734375 C 7.328125 -1.191406 7.578125 -1.785156 7.578125 -2.515625 C 7.578125 -3.203125 7.410156 -3.734375 7.078125 -4.109375 C 6.742188 -4.492188 6.207031 -4.867188 5.46875 -5.234375 L 4.609375 -5.609375 C 3.410156 -6.140625 2.472656 -6.75 1.796875 -7.4375 C 1.117188 -8.132812 0.78125 -9.054688 0.78125 -10.203125 C 0.78125 -11.023438 0.988281 -11.738281 1.40625 -12.34375 C 1.832031 -12.945312 2.425781 -13.40625 3.1875 -13.71875 C 3.957031 -14.039062 4.847656 -14.203125 5.859375 -14.203125 C 6.609375 -14.203125 7.3125 -14.101562 7.96875 -13.90625 C 8.632812 -13.71875 9.210938 -13.453125 9.703125 -13.109375 L 9.578125 -10.609375 L 9.359375 -10.609375 L 8.5 -12.171875 C 8.269531 -12.660156 8.035156 -13.003906 7.796875 -13.203125 C 7.554688 -13.410156 7.285156 -13.554688 6.984375 -13.640625 C 6.796875 -13.691406 6.625 -13.726562 6.46875 -13.75 C 6.320312 -13.769531 6.128906 -13.78125 5.890625 -13.78125 C 5.171875 -13.78125 4.566406 -13.570312 4.078125 -13.15625 C 3.597656 -12.75 3.359375 -12.195312 3.359375 -11.5 C 3.359375 -10.789062 3.546875 -10.222656 3.921875 -9.796875 C 4.296875 -9.367188 4.847656 -8.988281 5.578125 -8.65625 L 6.53125 -8.234375 C 7.875 -7.648438 8.835938 -7.023438 9.421875 -6.359375 C 10.015625 -5.691406 10.3125 -4.835938 10.3125 -3.796875 C 10.3125 -2.566406 9.84375 -1.5625 8.90625 -0.78125 C 7.976562 -0.0078125 6.664062 0.375 4.96875 0.375 Z M 4.96875 0.375 "/></g></g></g><g fill="#ffffff" fill-opacity="1"><g transform="translate(12.535629, 30.827927)"><g><path d="M 0.46875 0 L 0.46875 -0.203125 L 0.875 -0.375 C 1.15625 -0.476562 1.34375 -0.613281 1.4375 -0.78125 C 1.53125 -0.945312 1.578125 -1.160156 1.578125 -1.421875 L 1.578125 -12.390625 C 1.578125 -12.660156 1.53125 -12.878906 1.4375 -13.046875 C 1.34375 -13.222656 1.15625 -13.359375 0.875 -13.453125 L 0.46875 -13.625 L 0.46875 -13.828125 L 5.78125 -13.828125 L 5.78125 -13.625 L 5.421875 -13.46875 C 5.160156 -13.375 4.976562 -13.242188 4.875 -13.078125 C 4.78125 -12.921875 4.734375 -12.703125 4.734375 -12.421875 L 4.734375 -7.328125 L 9.75 -7.328125 L 9.75 -12.421875 C 9.75 -12.703125 9.703125 -12.921875 9.609375 -13.078125 C 9.515625 -13.242188 9.328125 -13.375 9.046875 -13.46875 L 8.671875 -13.625 L 8.671875 -13.828125 L 14.015625 -13.828125 L 14.015625 -13.625 L 13.59375 -13.453125 C 13.332031 -13.359375 13.148438 -13.222656 13.046875 -13.046875 C 12.953125 -12.878906 12.90625 -12.660156 12.90625 -12.390625 L 12.90625 -1.421875 C 12.90625 -1.160156 12.953125 -0.945312 13.046875 -0.78125 C 13.148438 -0.613281 13.332031 -0.476562 13.59375 -0.375 L 14.015625 -0.203125 L 14.015625 0 L 8.671875 0 L 8.671875 -0.203125 L 9.046875 -0.328125 C 9.328125 -0.441406 9.515625 -0.578125 9.609375 -0.734375 C 9.703125 -0.898438 9.75 -1.125 9.75 -1.40625 L 9.75 -6.921875 L 4.734375 -6.921875 L 4.734375 -1.40625 C 4.734375 -0.882812 4.960938 -0.523438 5.421875 -0.328125 L 5.78125 -0.203125 L 5.78125 0 Z M 0.46875 0 "/></g></g></g><g fill="#ffffff" fill-opacity="1"><g transform="translate(27.003856, 30.827927)"><g><path d="M 0.46875 0 L 0.46875 -0.203125 L 0.90625 -0.359375 C 1.175781 -0.453125 1.351562 -0.578125 1.4375 -0.734375 C 1.53125 -0.898438 1.578125 -1.128906 1.578125 -1.421875 L 1.578125 -12.390625 C 1.578125 -12.660156 1.535156 -12.875 1.453125 -13.03125 C 1.378906 -13.195312 1.207031 -13.332031 0.9375 -13.4375 L 0.46875 -13.625 L 0.46875 -13.828125 L 6.453125 -13.828125 C 8.097656 -13.828125 9.359375 -13.515625 10.234375 -12.890625 C 11.117188 -12.273438 11.5625 -11.414062 11.5625 -10.3125 C 11.5625 -9.695312 11.332031 -9.082031 10.875 -8.46875 C 10.414062 -7.851562 9.691406 -7.378906 8.703125 -7.046875 L 11.609375 -1.25 C 11.734375 -1.019531 11.875 -0.832031 12.03125 -0.6875 C 12.195312 -0.539062 12.410156 -0.410156 12.671875 -0.296875 L 12.953125 -0.1875 L 12.953125 0 L 9.203125 0 L 6.09375 -6.59375 L 4.671875 -6.59375 L 4.671875 -1.421875 C 4.671875 -1.160156 4.710938 -0.945312 4.796875 -0.78125 C 4.878906 -0.613281 5.054688 -0.484375 5.328125 -0.390625 L 5.828125 -0.203125 L 5.828125 0 Z M 4.671875 -7.015625 L 5.671875 -7.015625 C 6.679688 -7.015625 7.410156 -7.28125 7.859375 -7.8125 C 8.304688 -8.351562 8.53125 -9.15625 8.53125 -10.21875 C 8.53125 -11.300781 8.316406 -12.101562 7.890625 -12.625 C 7.472656 -13.144531 6.769531 -13.40625 5.78125 -13.40625 L 4.671875 -13.40625 Z M 4.671875 -7.015625 "/></g></g></g><g fill="#ffffff" fill-opacity="1"><g transform="translate(40.152978, 30.827927)"><g><path d="M 0.46875 0 L 0.46875 -0.203125 L 0.9375 -0.390625 C 1.175781 -0.492188 1.34375 -0.625 1.4375 -0.78125 C 1.53125 -0.945312 1.578125 -1.171875 1.578125 -1.453125 L 1.578125 -12.390625 C 1.578125 -12.660156 1.535156 -12.875 1.453125 -13.03125 C 1.378906 -13.195312 1.207031 -13.332031 0.9375 -13.4375 L 0.46875 -13.625 L 0.46875 -13.828125 L 10.5 -13.828125 L 10.625 -10.609375 L 10.40625 -10.609375 L 9.515625 -12.578125 C 9.390625 -12.828125 9.253906 -13.023438 9.109375 -13.171875 C 8.972656 -13.328125 8.765625 -13.40625 8.484375 -13.40625 L 4.71875 -13.40625 L 4.71875 -7.359375 L 6.953125 -7.359375 C 7.234375 -7.359375 7.445312 -7.429688 7.59375 -7.578125 C 7.738281 -7.722656 7.867188 -7.921875 7.984375 -8.171875 L 8.40625 -9.015625 L 8.609375 -9.015625 L 8.609375 -5.234375 L 8.40625 -5.234375 L 7.984375 -6.125 C 7.859375 -6.375 7.722656 -6.570312 7.578125 -6.71875 C 7.441406 -6.863281 7.234375 -6.9375 6.953125 -6.9375 L 4.71875 -6.9375 L 4.71875 -0.421875 L 8.953125 -0.421875 C 9.222656 -0.421875 9.4375 -0.492188 9.59375 -0.640625 C 9.75 -0.785156 9.875 -0.988281 9.96875 -1.25 L 10.828125 -3.234375 L 11.046875 -3.234375 L 10.921875 0 Z M 0.46875 0 "/></g></g></g><g fill="#ffffff" fill-opacity="1"><g transform="translate(51.773616, 30.827927)"><g><path d="M 3.453125 0 L 3.453125 -0.203125 L 4.078125 -0.375 C 4.566406 -0.519531 4.8125 -0.867188 4.8125 -1.421875 L 4.8125 -5.40625 L 1.359375 -12.453125 C 1.234375 -12.722656 1.117188 -12.925781 1.015625 -13.0625 C 0.910156 -13.207031 0.753906 -13.332031 0.546875 -13.4375 L 0.171875 -13.625 L 0.171875 -13.828125 L 5.78125 -13.828125 L 5.78125 -13.625 L 5.40625 -13.46875 C 5.09375 -13.34375 4.921875 -13.171875 4.890625 -12.953125 C 4.867188 -12.742188 4.929688 -12.476562 5.078125 -12.15625 L 7.546875 -6.65625 L 10.3125 -12.359375 C 10.425781 -12.585938 10.46875 -12.816406 10.4375 -13.046875 C 10.414062 -13.285156 10.269531 -13.441406 10 -13.515625 L 9.703125 -13.625 L 9.703125 -13.828125 L 12.21875 -13.828125 L 12.21875 -13.625 L 11.8125 -13.46875 C 11.550781 -13.375 11.359375 -13.238281 11.234375 -13.0625 C 11.109375 -12.882812 10.984375 -12.664062 10.859375 -12.40625 L 7.984375 -6.375 L 7.984375 -1.421875 C 7.984375 -1.140625 8.035156 -0.910156 8.140625 -0.734375 C 8.242188 -0.566406 8.429688 -0.445312 8.703125 -0.375 L 9.34375 -0.203125 L 9.34375 0 Z M 3.453125 0 "/></g></g></g><g fill="#ffffff" fill-opacity="1"><g transform="translate(64.127091, 30.827927)"><g><path d="M 0.171875 0 L 0.171875 -0.203125 L 0.6875 -0.390625 C 0.96875 -0.503906 1.1875 -0.640625 1.34375 -0.796875 C 1.5 -0.960938 1.625 -1.191406 1.71875 -1.484375 L 6.03125 -13.875 L 7.8125 -13.875 L 12.0625 -1.40625 C 12.175781 -1.09375 12.300781 -0.859375 12.4375 -0.703125 C 12.582031 -0.546875 12.800781 -0.410156 13.09375 -0.296875 L 13.34375 -0.203125 L 13.34375 0 L 8.03125 0 L 8.03125 -0.203125 L 8.34375 -0.3125 C 8.632812 -0.425781 8.8125 -0.582031 8.875 -0.78125 C 8.9375 -0.988281 8.925781 -1.234375 8.84375 -1.515625 L 7.859375 -4.53125 L 3.203125 -4.53125 L 2.203125 -1.578125 C 2.097656 -1.265625 2.0625 -1.015625 2.09375 -0.828125 C 2.132812 -0.648438 2.300781 -0.503906 2.59375 -0.390625 L 3.0625 -0.203125 L 3.0625 0 Z M 3.359375 -4.9375 L 7.734375 -4.9375 L 5.609375 -11.46875 Z M 3.359375 -4.9375 "/></g></g></g><g fill="#ffffff" fill-opacity="1"><g transform="translate(77.736847, 30.827927)"><g><path d="M 0.734375 0 L 0.734375 -0.203125 L 1.421875 -0.421875 C 1.671875 -0.492188 1.851562 -0.628906 1.96875 -0.828125 C 2.082031 -1.023438 2.140625 -1.265625 2.140625 -1.546875 L 2.140625 -11.625 C 1.984375 -11.957031 1.859375 -12.207031 1.765625 -12.375 C 1.679688 -12.550781 1.582031 -12.695312 1.46875 -12.8125 C 1.351562 -12.925781 1.195312 -13.078125 1 -13.265625 L 0.65625 -13.625 L 0.65625 -13.828125 L 4.359375 -13.828125 L 11.3125 -4.34375 L 11.3125 -12.234375 C 11.3125 -12.515625 11.265625 -12.765625 11.171875 -12.984375 C 11.085938 -13.210938 10.90625 -13.363281 10.625 -13.4375 L 9.9375 -13.625 L 9.9375 -13.828125 L 12.921875 -13.828125 L 12.921875 -13.625 L 12.359375 -13.4375 C 12.109375 -13.351562 11.953125 -13.203125 11.890625 -12.984375 C 11.835938 -12.773438 11.8125 -12.53125 11.8125 -12.25 L 11.8125 0.0625 L 10.640625 0.0625 L 2.640625 -10.9375 L 2.640625 -1.546875 C 2.640625 -1.265625 2.679688 -1.023438 2.765625 -0.828125 C 2.847656 -0.640625 3.023438 -0.503906 3.296875 -0.421875 L 3.921875 -0.203125 L 3.921875 0 Z M 0.734375 0 "/></g></g></g><g fill="#ffffff" fill-opacity="1"><g transform="translate(91.409414, 30.827927)"><g><path d="M 4.96875 0.375 C 4.195312 0.375 3.410156 0.28125 2.609375 0.09375 C 1.816406 -0.09375 1.15625 -0.34375 0.625 -0.65625 L 0.734375 -3.5 L 0.9375 -3.5 L 1.59375 -2.140625 C 1.789062 -1.742188 2 -1.394531 2.21875 -1.09375 C 2.445312 -0.800781 2.753906 -0.566406 3.140625 -0.390625 C 3.421875 -0.253906 3.691406 -0.160156 3.953125 -0.109375 C 4.210938 -0.0664062 4.5 -0.046875 4.8125 -0.046875 C 5.664062 -0.046875 6.335938 -0.273438 6.828125 -0.734375 C 7.328125 -1.191406 7.578125 -1.785156 7.578125 -2.515625 C 7.578125 -3.203125 7.410156 -3.734375 7.078125 -4.109375 C 6.742188 -4.492188 6.207031 -4.867188 5.46875 -5.234375 L 4.609375 -5.609375 C 3.410156 -6.140625 2.472656 -6.75 1.796875 -7.4375 C 1.117188 -8.132812 0.78125 -9.054688 0.78125 -10.203125 C 0.78125 -11.023438 0.988281 -11.738281 1.40625 -12.34375 C 1.832031 -12.945312 2.425781 -13.40625 3.1875 -13.71875 C 3.957031 -14.039062 4.847656 -14.203125 5.859375 -14.203125 C 6.609375 -14.203125 7.3125 -14.101562 7.96875 -13.90625 C 8.632812 -13.71875 9.210938 -13.453125 9.703125 -13.109375 L 9.578125 -10.609375 L 9.359375 -10.609375 L 8.5 -12.171875 C 8.269531 -12.660156 8.035156 -13.003906 7.796875 -13.203125 C 7.554688 -13.410156 7.285156 -13.554688 6.984375 -13.640625 C 6.796875 -13.691406 6.625 -13.726562 6.46875 -13.75 C 6.320312 -13.769531 6.128906 -13.78125 5.890625 -13.78125 C 5.171875 -13.78125 4.566406 -13.570312 4.078125 -13.15625 C 3.597656 -12.75 3.359375 -12.195312 3.359375 -11.5 C 3.359375 -10.789062 3.546875 -10.222656 3.921875 -9.796875 C 4.296875 -9.367188 4.847656 -8.988281 5.578125 -8.65625 L 6.53125 -8.234375 C 7.875 -7.648438 8.835938 -7.023438 9.421875 -6.359375 C 10.015625 -5.691406 10.3125 -4.835938 10.3125 -3.796875 C 10.3125 -2.566406 9.84375 -1.5625 8.90625 -0.78125 C 7.976562 -0.0078125 6.664062 0.375 4.96875 0.375 Z M 4.96875 0.375 "/></g></g></g><g fill="#ffffff" fill-opacity="1"><g transform="translate(102.318162, 30.827927)"><g/></g></g><g fill="#ffffff" fill-opacity="1"><g transform="translate(106.882667, 30.827927)"><g><path d="M 2.28125 0.375 C 1.59375 0.375 1.0625 0.242188 0.6875 -0.015625 C 0.320312 -0.285156 0.140625 -0.644531 0.140625 -1.09375 C 0.140625 -1.476562 0.273438 -1.773438 0.546875 -1.984375 C 0.828125 -2.203125 1.148438 -2.3125 1.515625 -2.3125 C 1.867188 -2.3125 2.1875 -2.226562 2.46875 -2.0625 C 2.75 -1.90625 3.007812 -1.628906 3.25 -1.234375 L 3.625 -0.59375 C 3.695312 -0.488281 3.785156 -0.4375 3.890625 -0.4375 C 3.992188 -0.4375 4.066406 -0.5 4.109375 -0.625 C 4.191406 -0.90625 4.25 -1.3125 4.28125 -1.84375 C 4.320312 -2.382812 4.34375 -3.039062 4.34375 -3.8125 C 4.34375 -4.695312 4.320312 -5.828125 4.28125 -7.203125 C 4.238281 -8.585938 4.195312 -10.296875 4.15625 -12.328125 C 4.15625 -12.921875 3.929688 -13.296875 3.484375 -13.453125 L 3 -13.625 L 3 -13.828125 L 8.484375 -13.828125 L 8.484375 -13.625 L 8.03125 -13.453125 C 7.769531 -13.359375 7.59375 -13.226562 7.5 -13.0625 C 7.414062 -12.90625 7.375 -12.679688 7.375 -12.390625 L 7.375 -8.234375 C 7.375 -6.867188 7.3125 -5.738281 7.1875 -4.84375 C 7.0625 -3.945312 6.859375 -3.171875 6.578125 -2.515625 C 6.234375 -1.578125 5.664062 -0.859375 4.875 -0.359375 C 4.082031 0.128906 3.21875 0.375 2.28125 0.375 Z M 2.28125 0.375 "/></g></g></g><g fill="#ffffff" fill-opacity="1"><g transform="translate(115.82323, 30.827927)"><g><path d="M 0.171875 0 L 0.171875 -0.203125 L 0.6875 -0.390625 C 0.96875 -0.503906 1.1875 -0.640625 1.34375 -0.796875 C 1.5 -0.960938 1.625 -1.191406 1.71875 -1.484375 L 6.03125 -13.875 L 7.8125 -13.875 L 12.0625 -1.40625 C 12.175781 -1.09375 12.300781 -0.859375 12.4375 -0.703125 C 12.582031 -0.546875 12.800781 -0.410156 13.09375 -0.296875 L 13.34375 -0.203125 L 13.34375 0 L 8.03125 0 L 8.03125 -0.203125 L 8.34375 -0.3125 C 8.632812 -0.425781 8.8125 -0.582031 8.875 -0.78125 C 8.9375 -0.988281 8.925781 -1.234375 8.84375 -1.515625 L 7.859375 -4.53125 L 3.203125 -4.53125 L 2.203125 -1.578125 C 2.097656 -1.265625 2.0625 -1.015625 2.09375 -0.828125 C 2.132812 -0.648438 2.300781 -0.503906 2.59375 -0.390625 L 3.0625 -0.203125 L 3.0625 0 Z M 3.359375 -4.9375 L 7.734375 -4.9375 L 5.609375 -11.46875 Z M 3.359375 -4.9375 "/></g></g></g><g fill="#ffffff" fill-opacity="1"><g transform="translate(129.432986, 30.827927)"><g><path d="M 0.46875 0 L 0.46875 -0.203125 L 0.875 -0.375 C 1.15625 -0.476562 1.34375 -0.613281 1.4375 -0.78125 C 1.53125 -0.945312 1.578125 -1.171875 1.578125 -1.453125 L 1.578125 -12.390625 C 1.578125 -12.660156 1.53125 -12.878906 1.4375 -13.046875 C 1.351562 -13.222656 1.164062 -13.359375 0.875 -13.453125 L 0.46875 -13.625 L 0.46875 -13.828125 L 5.84375 -13.828125 L 5.84375 -13.625 L 5.421875 -13.453125 C 5.140625 -13.359375 4.953125 -13.222656 4.859375 -13.046875 C 4.773438 -12.878906 4.734375 -12.660156 4.734375 -12.390625 L 4.734375 -1.453125 C 4.734375 -1.171875 4.773438 -0.945312 4.859375 -0.78125 C 4.953125 -0.625 5.140625 -0.488281 5.421875 -0.375 L 5.84375 -0.203125 L 5.84375 0 Z M 0.46875 0 "/></g></g></g><g fill="#ffffff" fill-opacity="1"><g transform="translate(135.735352, 30.827927)"><g><path d="M 0.734375 0 L 0.734375 -0.203125 L 1.421875 -0.421875 C 1.671875 -0.492188 1.851562 -0.628906 1.96875 -0.828125 C 2.082031 -1.023438 2.140625 -1.265625 2.140625 -1.546875 L 2.140625 -11.625 C 1.984375 -11.957031 1.859375 -12.207031 1.765625 -12.375 C 1.679688 -12.550781 1.582031 -12.695312 1.46875 -12.8125 C 1.351562 -12.925781 1.195312 -13.078125 1 -13.265625 L 0.65625 -13.625 L 0.65625 -13.828125 L 4.359375 -13.828125 L 11.3125 -4.34375 L 11.3125 -12.234375 C 11.3125 -12.515625 11.265625 -12.765625 11.171875 -12.984375 C 11.085938 -13.210938 10.90625 -13.363281 10.625 -13.4375 L 9.9375 -13.625 L 9.9375 -13.828125 L 12.921875 -13.828125 L 12.921875 -13.625 L 12.359375 -13.4375 C 12.109375 -13.351562 11.953125 -13.203125 11.890625 -12.984375 C 11.835938 -12.773438 11.8125 -12.53125 11.8125 -12.25 L 11.8125 0.0625 L 10.640625 0.0625 L 2.640625 -10.9375 L 2.640625 -1.546875 C 2.640625 -1.265625 2.679688 -1.023438 2.765625 -0.828125 C 2.847656 -0.640625 3.023438 -0.503906 3.296875 -0.421875 L 3.921875 -0.203125 L 3.921875 0 Z M 0.734375 0 "/></g></g></g></svg>